<svg viewBox="0 0 32 32" xmlns="http://www.w3.org/2000/svg"><path d="m15.931641 4c-.214 0-.434125.1192813-.578125.3632812-5.227 8.6149998-.371782 15.6606718 2.824218 22.2636718.111.221.333985.373047.583985.373047h7.589843c.483001 0 .799172-.527516.576172-.978516 0 0-10.207984-21.1409684-10.458984-21.6679684-.116-.234-.324109-.3535156-.537109-.3535156zm-.048829 3.7441406c2.12 4.3940004 6.429079 13.3198594 8.330079 17.2558594h-4.605469c-.29-.581-.588625-1.164953-.890625-1.751953-2.598-5.06-5.068985-9.871906-2.833985-15.5039064zm-5.566406 6.2558594c-.227 0-.4423591.125672-.5683591.388672l-5.6777344 11.615234c-.221.464.1164219.996094.6074219.996094h7.8984376.023437c.25 0 .471219-.155766.574219-.384766 1.713-3.602.683406-9.077515-2.308594-12.353515-.159-.172-.357828-.261719-.548828-.261719zm.253906 3.259766c1.338 2.374 1.797938 5.435234 1.085938 7.740234h-4.8691406z"/></svg>